<svg width="23" height="23" viewBox="0 0 23 23" fill="none" xmlns="http://www.w3.org/2000/svg">
<circle cx="11.5" cy="11.5" r="11.5" fill="#D9D9D9"/>
<path d="M11.5 11.5C10.8363 11.5 10.2681 11.2637 9.79542 10.791C9.32276 10.3184 9.08643 9.75017 9.08643 9.08643C9.08643 8.4227 9.32276 7.8545 9.79542 7.38184C10.2681 6.90918 10.8363 6.67285 11.5 6.67285C12.1637 6.67285 12.7319 6.90918 13.2046 7.38184C13.6773 7.8545 13.9136 8.4227 13.9136 9.08643C13.9136 9.75017 13.6773 10.3184 13.2046 10.791C12.7319 11.2637 12.1637 11.5 11.5 11.5ZM6.67285 15.1204V14.6377C6.67285 14.2957 6.76085 13.9815 6.93684 13.6949C7.11283 13.4082 7.34664 13.1895 7.63828 13.0387C8.26179 12.7269 8.89536 12.4931 9.53898 12.3372C10.1826 12.1813 10.8363 12.1034 11.5 12.1034C12.1637 12.1034 12.8174 12.1813 13.461 12.3372C14.1047 12.4931 14.7382 12.7269 15.3617 13.0387C15.6534 13.1895 15.8872 13.4082 16.0632 13.6949C16.2392 13.9815 16.3272 14.2957 16.3272 14.6377V15.1204C16.3272 15.4522 16.209 15.7363 15.9727 15.9727C15.7363 16.209 15.4522 16.3272 15.1204 16.3272H7.87964C7.54777 16.3272 7.26368 16.209 7.02735 15.9727C6.79102 15.7363 6.67285 15.4522 6.67285 15.1204ZM7.87964 15.1204H15.1204V14.6377C15.1204 14.527 15.0927 14.4265 15.0374 14.336C14.9821 14.2455 14.9092 14.1751 14.8187 14.1248C14.2756 13.8533 13.7275 13.6496 13.1744 13.5138C12.6213 13.3781 12.0632 13.3102 11.5 13.3102C10.9368 13.3102 10.3787 13.3781 9.82559 13.5138C9.27248 13.6496 8.72439 13.8533 8.18134 14.1248C8.09083 14.1751 8.01792 14.2455 7.96261 14.336C7.9073 14.4265 7.87964 14.527 7.87964 14.6377V15.1204ZM11.5 10.2932C11.8319 10.2932 12.116 10.1751 12.3523 9.93873C12.5886 9.7024 12.7068 9.4183 12.7068 9.08643C12.7068 8.75456 12.5886 8.47047 12.3523 8.23414C12.116 7.99781 11.8319 7.87964 11.5 7.87964C11.1681 7.87964 10.884 7.99781 10.6477 8.23414C10.4114 8.47047 10.2932 8.75456 10.2932 9.08643C10.2932 9.4183 10.4114 9.7024 10.6477 9.93873C10.884 10.1751 11.1681 10.2932 11.5 10.2932Z" fill="white"/>
</svg>
