<svg width="18" height="18" viewBox="0 0 18 18" fill="none" xmlns="http://www.w3.org/2000/svg">
<mask id="mask0_827_27332" style="mask-type:alpha" maskUnits="userSpaceOnUse" x="0" y="0" width="18" height="18">
<rect width="18" height="18" fill="#D9D9D9"/>
</mask>
<g mask="url(#mask0_827_27332)">
<path d="M2.25 15.3189C1.8375 15.3189 1.48438 15.1725 1.19063 14.8798C0.896875 14.587 0.75 14.2351 0.75 13.824V4.10698C0.75 3.69588 0.896875 3.34395 1.19063 3.05119C1.48438 2.75844 1.8375 2.61206 2.25 2.61206H15.75C16.1625 2.61206 16.5156 2.75844 16.8094 3.05119C17.1031 3.34395 17.25 3.69588 17.25 4.10698V13.824C17.25 14.2351 17.1031 14.587 16.8094 14.8798C16.5156 15.1725 16.1625 15.3189 15.75 15.3189H2.25ZM2.25 13.824H15.75V4.10698H2.25V13.824ZM6.375 12.3291H11.625C11.725 12.3291 11.8125 12.2917 11.8875 12.2169C11.9625 12.1422 12 12.055 12 11.9553C12 11.8557 11.9625 11.7685 11.8875 11.6937C11.8125 11.619 11.725 11.5816 11.625 11.5816H6.375C6.275 11.5816 6.1875 11.619 6.1125 11.6937C6.0375 11.7685 6 11.8557 6 11.9553C6 12.055 6.0375 12.1422 6.1125 12.2169C6.1875 12.2917 6.275 12.3291 6.375 12.3291ZM4.5 7.09683C4.7125 7.09683 4.89062 7.0252 5.03438 6.88193C5.17812 6.73867 5.25 6.56115 5.25 6.34937C5.25 6.13759 5.17812 5.96006 5.03438 5.8168C4.89062 5.67354 4.7125 5.60191 4.5 5.60191C4.2875 5.60191 4.10938 5.67354 3.96562 5.8168C3.82187 5.96006 3.75 6.13759 3.75 6.34937C3.75 6.56115 3.82187 6.73867 3.96562 6.88193C4.10938 7.0252 4.2875 7.09683 4.5 7.09683ZM7.5 7.09683C7.7125 7.09683 7.89063 7.0252 8.03438 6.88193C8.17813 6.73867 8.25 6.56115 8.25 6.34937C8.25 6.13759 8.17813 5.96006 8.03438 5.8168C7.89063 5.67354 7.7125 5.60191 7.5 5.60191C7.2875 5.60191 7.10938 5.67354 6.96563 5.8168C6.82188 5.96006 6.75 6.13759 6.75 6.34937C6.75 6.56115 6.82188 6.73867 6.96563 6.88193C7.10938 7.0252 7.2875 7.09683 7.5 7.09683ZM10.5 7.09683C10.7125 7.09683 10.8906 7.0252 11.0344 6.88193C11.1781 6.73867 11.25 6.56115 11.25 6.34937C11.25 6.13759 11.1781 5.96006 11.0344 5.8168C10.8906 5.67354 10.7125 5.60191 10.5 5.60191C10.2875 5.60191 10.1094 5.67354 9.96563 5.8168C9.82188 5.96006 9.75 6.13759 9.75 6.34937C9.75 6.56115 9.82188 6.73867 9.96563 6.88193C10.1094 7.0252 10.2875 7.09683 10.5 7.09683ZM13.5 7.09683C13.7125 7.09683 13.8906 7.0252 14.0344 6.88193C14.1781 6.73867 14.25 6.56115 14.25 6.34937C14.25 6.13759 14.1781 5.96006 14.0344 5.8168C13.8906 5.67354 13.7125 5.60191 13.5 5.60191C13.2875 5.60191 13.1094 5.67354 12.9656 5.8168C12.8219 5.96006 12.75 6.13759 12.75 6.34937C12.75 6.56115 12.8219 6.73867 12.9656 6.88193C13.1094 7.0252 13.2875 7.09683 13.5 7.09683ZM4.5 10.0867C4.7125 10.0867 4.89062 10.015 5.03438 9.87178C5.17812 9.72852 5.25 9.55099 5.25 9.33921C5.25 9.12743 5.17812 8.94991 5.03438 8.80665C4.89062 8.66338 4.7125 8.59175 4.5 8.59175C4.2875 8.59175 4.10938 8.66338 3.96562 8.80665C3.82187 8.94991 3.75 9.12743 3.75 9.33921C3.75 9.55099 3.82187 9.72852 3.96562 9.87178C4.10938 10.015 4.2875 10.0867 4.5 10.0867ZM7.5 10.0867C7.7125 10.0867 7.89063 10.015 8.03438 9.87178C8.17813 9.72852 8.25 9.55099 8.25 9.33921C8.25 9.12743 8.17813 8.94991 8.03438 8.80665C7.89063 8.66338 7.7125 8.59175 7.5 8.59175C7.2875 8.59175 7.10938 8.66338 6.96563 8.80665C6.82188 8.94991 6.75 9.12743 6.75 9.33921C6.75 9.55099 6.82188 9.72852 6.96563 9.87178C7.10938 10.015 7.2875 10.0867 7.5 10.0867ZM10.5 10.0867C10.7125 10.0867 10.8906 10.015 11.0344 9.87178C11.1781 9.72852 11.25 9.55099 11.25 9.33921C11.25 9.12743 11.1781 8.94991 11.0344 8.80665C10.8906 8.66338 10.7125 8.59175 10.5 8.59175C10.2875 8.59175 10.1094 8.66338 9.96563 8.80665C9.82188 8.94991 9.75 9.12743 9.75 9.33921C9.75 9.55099 9.82188 9.72852 9.96563 9.87178C10.1094 10.015 10.2875 10.0867 10.5 10.0867ZM13.5 10.0867C13.7125 10.0867 13.8906 10.015 14.0344 9.87178C14.1781 9.72852 14.25 9.55099 14.25 9.33921C14.25 9.12743 14.1781 8.94991 14.0344 8.80665C13.8906 8.66338 13.7125 8.59175 13.5 8.59175C13.2875 8.59175 13.1094 8.66338 12.9656 8.80665C12.8219 8.94991 12.75 9.12743 12.75 9.33921C12.75 9.55099 12.8219 9.72852 12.9656 9.87178C13.1094 10.015 13.2875 10.0867 13.5 10.0867Z" fill="#606266"/>
</g>
</svg>
